Coordinates
version=1
nRows=17
nColumns=24
inDegrees=yes

Units are S.I. units (second, meters, Newtons, ...)
Angles are in degrees.

endheader
time	pelvis_tilt	pelvis_list	pelvis_rotation	pelvis_tx	pelvis_ty	pelvis_tz	hip_flexion_r	hip_adduction_r	hip_rotation_r	knee_angle_r	ankle_angle_r	subtalar_angle_r	mtp_angle_r	hip_flexion_l	hip_adduction_l	hip_rotation_l	knee_angle_l	ankle_angle_l	subtalar_angle_l	mtp_angle_l	lumbar_extension	lumbar_bending	lumbar_rotation
      4.30000000	     -5.58527590	     -8.71998414	     -0.70310107	     -1.87355907	      0.68954731	      0.20789217	     13.60351019	     17.57791524	      9.35081802	    -17.44760669	     20.05015024	     -5.21254086	      0.00000000	     28.46032172	     -7.55995554	     -1.75295384	    -73.93317752	      3.92241081	     -3.67133044	      0.00000000	     -8.34692497	     11.36961054	     -2.21554067
      4.31000000	     -5.34579916	     -8.22954992	     -0.79950456	     -1.86011877	      0.69223578	      0.20838101	     10.65348806	     17.16771333	     12.29683794	    -15.04544815	     18.61314376	     -8.16249353	      0.00000000	     29.86465680	     -6.91165648	     -1.70780510	    -72.55245370	      5.25068506	     -4.82384914	      0.00000000	     -8.72638537	     10.57260213	     -2.08053037
      4.32000000	     -5.17788878	     -7.62748542	     -0.91591677	     -1.84696714	      0.69458139	      0.20870116	      7.73601881	     16.50621161	     15.61250054	    -12.48466342	     16.74538555	    -11.81958652	      0.00000000	     31.17858616	     -6.08213661	     -1.66919880	    -70.69338251	      6.12926393	     -6.26470751	      0.00000000	     -9.12931065	      9.67405644	     -1.80475474
      4.33000000	     -5.09219893	     -6.95300713	     -1.01489531	     -1.83393810	      0.69654489	      0.20879473	      4.91918141	     15.59401281	     18.94083339	     -9.83583947	     14.42118625	    -15.95562620	      0.00000000	     32.37475690	     -5.11578495	     -1.62168794	    -68.31835517	      6.56916188	     -8.05540979	      0.00000000	     -9.45272131	      8.73512867	     -1.72981265
      4.34000000	     -5.10719081	     -6.17213263	     -1.43835804	     -1.82116563	      0.69813446	      0.20898928	      2.49358825	     14.45892129	     21.52759244	     -7.60866098	     12.57750510	    -18.92847739	      0.00000000	     33.37997851	     -4.17177724	     -1.81658054	    -65.40744584	      6.81487368	     -9.78589850	      0.00000000	     -9.77653319	      7.69564252	     -1.33518592
      4.35000000	     -5.29273357	     -5.48175888	     -1.92025929	     -1.80855726	      0.69916401	      0.20905315	      0.50360065	     13.35489957	     23.27081852	     -5.70706004	     11.14082791	    -20.90668101	      0.00000000	     34.37405110	     -3.31922339	     -1.90835015	    -62.05183912	      6.82882686	    -11.56961522	      0.00000000	     -9.93694749	      6.81916919	     -0.95637752
      4.36000000	     -5.52930709	     -4.89675568	     -2.46206802	     -1.79606528	      0.69979067	      0.20911348	     -1.19576990	     12.36920146	     24.28750645	     -4.15594924	     10.15624729	    -21.98212653	      0.00000000	     35.19721067	     -2.60833160	     -1.88393932	    -58.24145196	      6.75233386	    -13.18639725	      0.00000000	    -10.09480592	      6.08456657	     -0.52701372
      4.37000000	     -6.00820586	     -4.49865878	     -3.12445979	     -1.78366556	      0.69979763	      0.20925282	     -2.38219849	     11.64413659	     24.62753600	     -3.05322029	      9.80868761	    -21.87887008	      0.00000000	     36.06088905	     -2.16223419	     -1.72445355	    -54.02136005	      6.61134048	    -14.62949864	      0.00000000	     -9.98847378	      5.60595960	      0.01646667
      4.38000000	     -6.25390214	     -4.14734258	     -3.85395319	     -1.77117661	      0.69980219	      0.20948943	     -3.77678479	     10.93953882	     25.10956146	     -2.03962780	      9.39776065	    -21.87640966	      0.00000000	     36.34595012	     -1.82304645	     -1.46956600	    -49.27190431	      6.59906811	    -15.74696843	      0.00000000	    -10.21632683	      5.13628881	      0.61984781
      4.39000000	     -6.42202841	     -3.89999154	     -4.61346972	     -1.75853966	      0.69959836	      0.20974511	     -5.18548304	     10.32905022	     25.58456588	     -1.17912773	      9.02695933	    -21.79145719	      0.00000000	     36.23186493	     -1.61435450	     -1.00830575	    -44.03680181	      6.73858483	    -16.49832899	      0.00000000	    -10.54365750	      4.78943264	      1.21498796
      4.40000000	     -6.48337530	     -3.76813020	     -5.39951287	     -1.74574034	      0.69921913	      0.21003253	     -6.64531515	      9.81847226	     26.05351527	     -0.47301156	      8.72513509	    -21.59339565	      0.00000000	     35.66695313	     -1.53002410	     -0.23502755	    -38.32357437	      6.95794071	    -17.02579482	      0.00000000	    -11.01281878	      4.55819187	      1.83647612
      4.41000000	     -6.41415942	     -3.75966330	     -6.18078615	     -1.73267774	      0.69866266	      0.21028927	     -8.21489082	      9.39278441	     26.54869918	      0.11613620	      8.48842893	    -21.28764018	      0.00000000	     34.60589152	     -1.55563633	      1.01304590	    -32.16129889	      7.11902409	    -17.54081070	      0.00000000	    -11.62909354	      4.45847134	      2.43678125
      4.42000000	     -6.30342307	     -3.84151932	     -7.00943367	     -1.71919424	      0.69779432	      0.21065581	     -9.82783436	      9.00871331	     27.17027245	      0.60874150	      8.40173162	    -20.81308908	      0.00000000	     33.12366158	     -1.73448412	      2.85798665	    -25.61009313	      6.94059144	    -18.42895826	      0.00000000	    -12.21282879	      4.43471086	      2.98364815
      4.43000000	     -6.16717768	     -4.13503501	     -8.00410547	     -1.70545500	      0.69665455	      0.21135995	    -11.41138970	      8.82109071	     27.91832550	      0.86037157	      8.37731332	    -20.12989941	      0.00000000	     31.28814137	     -2.33256838	      5.37351917	    -18.85187580	      6.03924082	    -20.22278943	      0.00000000	    -12.82616957	      4.59400746	      3.78388208
      4.44000000	     -5.91723687	     -4.72377189	     -8.97212053	     -1.69138488	      0.69523472	      0.21238807	    -13.11520277	      8.93817260	     28.63605027	      0.92267650	      8.38852263	    -19.27679060	      0.00000000	     29.16966763	     -3.45479865	      8.39168085	    -12.23499902	      4.49389389	    -22.81596457	      0.00000000	    -13.55870648	      5.00280920	      4.57739002
      4.45000000	     -5.92303283	     -5.62613826	     -9.88209798	     -1.67719403	      0.69313591	      0.21378528	    -14.47985478	      9.50273276	     29.24165766	      0.64905266	      8.48398255	    -18.21655183	      0.00000000	     27.54328179	     -5.15208423	     10.69777515	     -6.46777654	      3.21267833	    -24.71398053	      0.00000000	    -13.98240284	      5.73848975	      5.35975524
      4.46000000	     -6.13829068	     -6.60005572	    -10.63546714	     -1.66282975	      0.69062668	      0.21514043	    -15.52066929	     10.25283037	     29.62856535	      0.07179648	      8.65379119	    -16.96395309	      0.00000000	     26.53937953	     -6.88243590	     11.70550897	     -1.93038366	      2.82894027	    -25.00553016	      0.00000000	    -14.11552163	      6.59398188	      5.98279577
